<svg id="Yi_Feng" data-name="Yi Feng" xmlns="http://www.w3.org/2000/svg" xmlns:xlink="http://www.w3.org/1999/xlink" viewBox="0 0 835 835"><defs><style>.cls-1{fill:url(#linear-gradient);}</style><linearGradient id="linear-gradient" x1="180.74" y1="269.71" x2="650.26" y2="570.82" gradientUnits="userSpaceOnUse"><stop offset="0.35" stop-color="#cb573b"/><stop offset="0.53" stop-color="#c1524a"/><stop offset="0.89" stop-color="#a64472"/><stop offset="1" stop-color="#9c3f80"/></linearGradient></defs><title>Yi Feng</title><path class="cls-1" d="M639.53,255,461,151.12c-32.88-19.45-58.16-17.18-86.9-.48l-90.42,52.53-83.82,48.69c-27.78,16.15-37.71,30.85-37.71,70v99.1c0,.21,0,57.53,0,57,0,14.58,5.28,28.27,20.63,19.38l27.67-16C217,477.47,224.3,469.87,224.3,455v-74.6C224.3,337.17,227,300.19,267,277l67.49-39.2c24.16-14,48-15.25,74.38.08l78.9,45.83c5.73,3.33,8.26,9.07-.43,14.11l-15,8.67c-5.27,3-10.56.59-15-2l-60.22-35.05a41.56,41.56,0,0,0-42.7,0L303.1,299.25c-18.09,10.5-13.2,21.92,3.7,32.37l49.57,30.67c3.32,2,7.22,7.17,1.58,10.43-6.95,4-10.29,6-23.3,13.5-4.4,2.55-9.37.54-13.93-2.28l-27.25-16.85C277.19,357,266.94,364.24,267,379.25V603c0,16.67,6.68,27.19,25.17,37.93L366.5,684.1,378.32,691c7.63,4.43,24.92,1.49,24.92-10.83V453.63c0-17.13-5.38-22-12.82-26.57l-14.7-9.1-17-10.51c-5-3.1-5.54-8.84.35-12.26l18.76-10.86c4.27-2.47,8.2-3.69,15.08.57l10.32,6.38c15.95,9.86,29.39,6.69,41.57-.12L635.75,284.57c17.91-10,18.38-21.35-.25-32.19M485.09,118,668,224.41c36.41,21.19,45.91,36.09,45.91,81.58V544.38c0,45.1-24.56,61.35-57.3,80.32l-106.7,61.8-69.6,40.31c-37.53,21.82-79.66,28-125.68,1.29l-85.77-49.9-96.78-56.35c-45.88-26.45-50.93-45.29-50.9-103.16l0-97.43V328.17c0-42.58-.22-51.61,11.61-72,9.9-17,24.87-26.82,35.49-33,78-45.2,115-66.67,181.47-105.14,11.21-6.49,48.48-28.26,67.8-28.81,18.79-.54,38.76,11.93,68.12,29m46.53,505.55a44.06,44.06,0,0,0,44.65,0l68-39.38C663.3,573.68,673,558.17,673,538.57V452c0-20-13.82-30-27.38-37.87l-18.84-11-42.12-24.52c-15.3-8.91-29.69-8.91-45.08,0l-81,46.92C447.4,432,445,438.66,445,460.49v83.8c0,18.29,1.39,29.74,15.81,38.11L507,609.19ZM652.46,379c10.67,6.19,20.56,2.06,20.56-11.88l0-42.45c0-16.21-11.12-16.9-23.25-9.87L617.32,333.6c-11.16,6.46-11.68,18.27.75,25.48l30.78,17.84ZM461.12,626.87c-7-4.08-16.12-1.92-16.12,8.34V677c0,16.17,8,18.49,21.45,10.68l30-17.4c12.25-7.09,11.62-16.13,1.61-21.94l-33.45-19.43Zm-256.88-37c11.52,6.69,20,1,20.07-8.62V534.88c0-17.46-13.46-13.3-25.66-6.49l-24.81,13.85c-14.91,8.27-16.17,20.57,0,30l27.7,16.09Z"/></svg>